Patient4_TMGait_0pt4_02_right_39_EMG.mot
version=1
nRows=13
nColumns=33
inDegrees=no
endheader
time	1LAddLong	2LGlutMax	3LGlutMed	4LIliopsoas	5LSemiMemb	6LBicFemLong	7LRecFem	8LVastMed	9LVastLat	10LGasMed	11LTibAnt	12lTibPost	13LPeroneusLong	14LSol	15LExtDigLong	16LFlexDigLong	17RAddLong	18RGlutMax	19RGlutMed	20RIliopsoas	21RSemiMemb	22RBicFemLong	23RRecFem	24RVastMed	25RVastLat	26RGasMed	27RTibAnt	28RTibPost	29RPeroneusLong	30RSol	31RExtDigLong	32RFlexDigLong
51.45	-0.070038	-0.003662	-0.1207	-0.004578	0.003815	0.005341	0.20798	0.013275	-0.1976	0.038605	0.18784	0.065613	-0.023956	-0.007782	0.028076	0.11002	0.11154	-0.079498	-0.19241	-0.25452	0.032959	-0.057678	0.17517	-0.021057	-0.009003	-0.009766	0.30777	-0.005341	-0.50995	-0.051117	-0.005798	0.000916
51.451	-0.005951	-0.025177	-0.14862	0.004425	0.001068	-0.017548	-0.003204	0.002441	-0.046082	0.057678	0.02243	-0.090179	-0.073853	-0.088348	-0.011292	0.057068	0.052032	-0.010071	-0.19424	0.005493	0.037994	-0.057526	0.20874	-0.06073	-0.000458	-0.013275	0.33768	-0.001526	-0.17181	-0.03418	-0.00061	0.000916
51.452	0.009918	-0.025177	0.043335	-0.001373	0.032349	-0.028839	0.00473	-0.007629	0.13657	0.099792	0.08316	0.000153	-0.099182	-0.1886	-0.17136	0.015259	0.012512	-0.053406	0.11673	0.17578	0.033722	-0.094299	0.18524	-0.095673	-0.028687	-0.010986	0.22537	-0.005035	-0.26245	-0.062866	-0.001678	0.002899
51.453	0.004883	0.001373	-0.007629	0.004272	0.01358	0.013275	0.053711	-0.012665	0.067749	0.10162	0.037231	0.006866	-0.076904	-0.062103	-0.20859	-0.018616	-0.012817	-0.036163	0.21606	0.34622	0.0354	-0.11261	0.21454	-0.09079	-0.010986	-0.001526	-0.001373	-0.004272	0.1297	-0.095215	0.003052	-0.002441
51.454	0.002899	0.02121	-0.1915	0.020752	0.011292	0.053253	-0.04303	-0.021667	0.044861	0.072327	-0.14496	-0.001373	-0.014648	0.04715	-0.15427	-0.03006	-0.048218	-0.050659	-0.11215	0.35568	0.052948	-0.13229	0.16296	-0.063629	-0.010223	0.001221	-0.13672	-0.000153	0.26657	-0.046539	-0.001221	0.000305
51.455	0.008392	0.012817	-0.15747	0.026703	0.027161	0.055237	-0.19928	-0.005188	0.066376	0.033875	-0.033264	-0.003357	-0.025635	0.11429	0.34592	-0.045471	-0.077057	-0.093994	-0.098419	0.21866	0.06958	-0.081482	0.1442	-0.00473	-0.027313	-0.00061	-0.16876	0.005646	0.16769	-0.010529	-0.005493	-0.00824
51.456	-0.000763	0.02655	0.10162	0.021362	0.018463	0.019073	-0.1503	0.00885	0.11444	-0.098114	0.096893	-0.001221	-0.027008	0.2301	0.40436	-0.022278	-0.082092	-0.067749	-0.34759	0.14221	0.057526	-0.066528	0.16296	-0.023346	-0.009918	-0.011902	-0.07309	0.00061	0.031433	-0.016022	-0.001221	-0.010681
51.457	-0.005798	0.051727	0.16419	0.000763	0.004272	-0.015106	-0.047455	0.003815	0.068359	-0.28412	-0.005951	0.004578	-0.005341	0.2092	0.3952	-0.020294	-0.05722	-0.06424	-0.37918	0.032501	0.047913	-0.060883	0.18082	-0.027771	-0.006866	-0.015106	-0.046997	-0.001373	0.023193	-0.009766	0.000763	-0.007324
51.458	-0.008698	0.083771	0.27084	0.008392	-0.024261	-0.035706	0.02594	0.00946	0.026398	-0.27206	0.13473	0.001678	0.041199	0.22705	0.35873	-0.006561	-0.03479	-0.053864	-0.1149	-0.064392	0.059357	-0.023041	0.1973	-0.088043	0.000305	-0.007019	0.074463	-0.004883	0.064697	-0.050812	-0.000305	-0.001831
51.459	-0.009155	0.10666	0.21316	0.010223	-0.057068	-0.024872	-0.032349	0.021973	0.030212	-0.11749	-0.042267	0.004883	0.028534	0.14099	-0.37048	-0.004272	-0.027924	-0.036316	-0.26169	-0.019989	0.065308	-0.013275	0.17242	-0.042572	-0.013428	-0.016632	0.20554	-0.003662	-0.021973	-0.089722	0	-0.006866
51.46	-0.004425	0.13046	0.052032	0.007782	-0.052643	-0.020905	-0.090027	0.00946	0.0737	-0.057983	-0.19791	-0.005341	0.060577	-0.007629	-0.54169	-0.021973	-0.048676	-0.037384	0.21027	-0.0177	0.057678	-0.015717	0.18936	-0.065613	-0.008698	-0.009918	0.11231	-0.004578	-0.051422	-0.063477	-0.000458	-0.002747
51.461	0.006256	0.15366	-0.04425	0.00946	-0.00946	-0.016937	-0.080414	-0.001984	0.14984	-0.02182	-0.17364	-0.004425	0.036163	0.002747	-0.40176	-0.014801	-0.046539	-0.020142	0.69366	-0.08255	0.063171	-0.022583	0.13092	-0.070953	0.020294	-0.008698	0.32486	-0.004272	-0.021973	-0.025024	-0.003815	-0.002289
51.462	0.010529	0.10803	0.035095	-0.016327	0.09964	0.024719	-0.031281	-0.00946	0.1506	-0.023346	-0.14786	0.001526	-0.054779	-0.054626	-0.19409	-0.019989	-0.028992	0.042725	1.2204	-0.013885	0.045319	-0.042725	0.10742	-0.10391	0.019073	-0.002136	0.59586	-0.000763	0.093384	-0.033264	0.00061	-0.00885
